<?xml version="1.0" encoding="utf-8"?>
<!-- Generator: Adobe Illustrator 16.0.3, SVG Export Plug-In . SVG Version: 6.00 Build 0)  -->
<!DOCTYPE svg PUBLIC "-//W3C//DTD SVG 1.1//EN" "http://www.w3.org/Graphics/SVG/1.1/DTD/svg11.dtd">
<svg version="1.1" id="圖層_1" xmlns="http://www.w3.org/2000/svg" xmlns:xlink="http://www.w3.org/1999/xlink" x="0px" y="0px"
	 width="116.738px" height="41.202px" viewBox="0 0 116.738 41.202" enable-background="new 0 0 116.738 41.202"
	 xml:space="preserve">
<g>
	<g>
		<linearGradient id="SVGID_1_" gradientUnits="userSpaceOnUse" x1="58.6826" y1="39.7173" x2="58.6826" y2="1.3154">
			<stop  offset="0" style="stop-color:#B90E5B"/>
			<stop  offset="1" style="stop-color:#D9527B"/>
		</linearGradient>
		<path fill="url(#SVGID_1_)" stroke="#8B345B" stroke-miterlimit="10" d="M115.71,34.596c0,2.829-2.293,5.121-5.121,5.121H6.776
			c-2.829,0-5.121-2.292-5.121-5.121V6.435c0-2.828,2.292-5.12,5.121-5.12h103.813c2.828,0,5.121,2.292,5.121,5.12V34.596z"/>
		<g>
			<g>
				<g>
					<path fill="#FFFFFF" d="M46.167,27.601c0.858-2.766,1.513-5.656,1.964-8.673l1.382,0.346c-0.565,3.132-1.194,5.907-1.885,8.327
						h4.289v1.366H37.259v-1.366H46.167z M43.92,14.686h1.43v1.917h6.19v1.367H37.636v-1.367h6.284V14.686z M40.652,18.991
						c0.838,2.702,1.445,5.217,1.822,7.542l-1.398,0.22c-0.408-2.451-1.011-4.934-1.807-7.447L40.652,18.991z"/>
					<path fill="#FFFFFF" d="M54.501,29.25l-0.44-1.367l0.848-0.188V15.377c0.01-0.272,0.146-0.408,0.409-0.408h5.688
						c0.282,0.01,0.424,0.146,0.424,0.408v7.243c0,0.293-0.146,0.439-0.439,0.439h-4.713v4.32l3.393-0.785
						c-0.492-1.026-0.806-1.687-0.942-1.979l1.257-0.519c0.964,2.001,1.649,3.629,2.058,4.886l-1.288,0.409
						c-0.167-0.493-0.351-0.995-0.55-1.509L54.501,29.25z M60.062,18.299v-1.634c0-0.22-0.115-0.33-0.346-0.33h-3.11
						c-0.22,0-0.33,0.11-0.33,0.33v1.634H60.062z M56.276,19.667v2.026h3.566c0.146-0.01,0.22-0.083,0.22-0.22v-1.807H56.276z
						 M62.576,29.392V15.315c0-0.23,0.115-0.346,0.346-0.346h5.264c0.23,0,0.346,0.115,0.346,0.346v11.547
						c-0.011,0.556-0.226,0.979-0.645,1.273c-0.576,0.387-1.618,0.408-3.126,0.063v-1.524c1.1,0.346,1.78,0.435,2.042,0.268
						c0.241-0.157,0.361-0.366,0.361-0.629v-9.866c-0.011-0.073-0.053-0.11-0.125-0.11h-2.985c-0.073,0-0.11,0.037-0.11,0.11v12.946
						H62.576z"/>
					<path fill="#FFFFFF" d="M81.688,20.813v0.032c-0.011,1.047-0.43,1.854-1.258,2.419L79.583,22.4
						c0.659-0.429,0.989-1.068,0.989-1.916v-0.676c0-0.084,0.021-0.146,0.063-0.188c0.052-0.042,0.115-0.063,0.188-0.063h3.236
						c0.031,0,0.052,0.006,0.063,0.017c-1.288-0.682-2.545-1.729-3.771-3.143c-0.953,1.184-2.079,2.205-3.378,3.063h2.168
						c0.146,0,0.22,0.068,0.22,0.204v3.771c-0.419,0-0.832,0-1.24,0v-0.22h-1.65c-0.053,0-0.1,0.016-0.142,0.047
						c-0.031,0.032-0.047,0.079-0.047,0.142v0.613h2.75c0.251,0.031,0.361,0.162,0.329,0.393c-0.178,2.221-0.304,3.509-0.377,3.865
						c-0.073,0.377-0.267,0.665-0.581,0.863c-0.691,0.419-1.828,0.403-3.409-0.047l-0.047-1.366c0.88,0.261,1.539,0.397,1.979,0.408
						c0.262,0,0.508-0.037,0.738-0.11c0.104-0.031,0.178-0.115,0.22-0.251c0.063-0.157,0.146-0.927,0.252-2.31
						c-0.021-0.073-0.079-0.104-0.173-0.095h-1.682V25.7c-0.419-0.031-0.833-0.053-1.241-0.063v-3.253
						c-0.503,0.461-0.916,0.833-1.241,1.116v4.635c-0.011,0.397-0.1,0.712-0.267,0.942c-0.157,0.209-0.336,0.361-0.534,0.455
						c-0.367,0.137-0.933,0.079-1.697-0.172l-0.078-1.367c0.607,0.167,0.947,0.23,1.021,0.188c0.168-0.104,0.252-0.22,0.252-0.346
						V24.49c-0.146,0.095-0.272,0.179-0.377,0.252l-0.959-1.006c0.534-0.346,0.979-0.649,1.336-0.911v-3.943h-1.194v-1.305h1.194
						v-2.844H73.8v2.844h0.975v1.305H73.8v2.828c0.157-0.147,0.288-0.283,0.393-0.409l0.912,0.817
						c0.01-0.021,0.021-0.037,0.031-0.047c0.041-0.042,0.109-0.063,0.204-0.063h2.781v-1.084c0-0.126-0.068-0.188-0.205-0.188
						h-2.042v-0.612c-0.314,0.156-0.634,0.304-0.959,0.439l-0.675-1.131c0.743-0.272,1.529-0.645,2.356-1.116
						c-0.137-0.104-0.283-0.193-0.44-0.267c-0.471-0.241-0.774-0.398-0.911-0.472l0.676-1.1c0.556,0.283,1.147,0.618,1.775,1.006
						c0.461-0.409,0.88-0.833,1.257-1.272h-2.702v-1.257h4.242c0.115,0,0.22,0.084,0.314,0.251c0.229,0.304,0.477,0.603,0.738,0.896
						c0.565-0.513,0.995-0.964,1.288-1.352l0.958,0.928c-0.346,0.419-0.785,0.869-1.319,1.351c0.45,0.356,0.691,0.55,0.723,0.581
						c0.629-0.628,1.104-1.162,1.43-1.603l0.958,0.817c-0.324,0.45-0.743,0.933-1.257,1.445c0.629,0.294,1.278,0.519,1.948,0.676
						l-0.738,1.179c-0.439-0.137-0.869-0.304-1.288-0.503c0.042,0.053,0.068,0.115,0.078,0.188v1.603
						c0.011,0.157,0.037,0.288,0.079,0.393c0.063,0.084,0.209,0.131,0.439,0.142h-0.109c0.083-0.011,0.193-0.037,0.33-0.079
						c0.031-0.031,0.094-0.235,0.188-0.612l1.036,0.283c-0.125,0.69-0.251,1.089-0.377,1.193c-0.251,0.22-0.508,0.33-0.77,0.33
						h-0.802c-0.335-0.01-0.602-0.115-0.801-0.314c-0.23-0.22-0.341-0.486-0.33-0.801v-1.1c-0.021-0.115-0.084-0.173-0.188-0.173
						h-1.194C81.735,20.672,81.688,20.719,81.688,20.813z M82.913,28.324c-1.235,0.785-2.11,1.262-2.623,1.43l-0.802-1.132
						c0.995-0.282,1.78-0.603,2.356-0.958c0.042-0.042,0.084-0.068,0.126-0.078c-0.523-0.462-1.058-1.026-1.603-1.697l0.942-0.785
						c0.598,0.732,1.147,1.319,1.65,1.759c0.67-0.586,1.162-1.241,1.477-1.964c0.063-0.209-0.021-0.309-0.251-0.298h-3.928v-1.179
						h4.933l0.66,0.597c-0.461,1.467-1.115,2.63-1.964,3.488c0.649,0.388,1.461,0.712,2.436,0.975L85.6,29.627
						C84.636,29.302,83.741,28.868,82.913,28.324z"/>
					<path fill="#FFFFFF" d="M90.87,18.661h-2.45v-1.366h2.45v-2.546h1.43v2.546h2.043v1.366h-2.043v3.143
						c0.691-0.293,1.263-0.57,1.713-0.833l0.707,1.179c-0.639,0.346-1.367,0.676-2.184,0.99c-0.084,0.031-0.163,0.067-0.236,0.109
						v4.493c0,0.618-0.251,1.101-0.754,1.446c-0.556,0.355-1.508,0.345-2.859-0.032l-0.016-1.492c1.1,0.335,1.78,0.393,2.042,0.173
						c0.105-0.084,0.157-0.241,0.157-0.472v-3.598c-0.659,0.22-1.325,0.43-1.995,0.629l-0.645-1.32
						c1.027-0.251,1.906-0.492,2.64-0.723V18.661z M94.327,16.65v-1.367h8.688v1.367h-1.98v10.967c0,0.617-0.251,1.1-0.754,1.445
						c-0.807,0.544-2.31,0.487-4.509-0.173l0.031-1.477c0.827,0.24,1.492,0.408,1.995,0.502c0.786,0.146,1.336,0.079,1.65-0.204
						c0.104-0.084,0.156-0.241,0.156-0.471V16.65H94.327z"/>
				</g>
			</g>
		</g>
	</g>
	<g>
		<path fill="#FFFFFF" d="M19.884,18.488c0.43-0.489,0.263-0.787,0.017-1.054c-0.244-0.265-1.126-1.341-1.913-2.187
			c-0.365-0.394-0.655-0.51-1.106-0.232c-0.177,0.108-0.464,0.293-0.676,0.439l3.132,3.646
			C19.338,19.101,19.683,18.717,19.884,18.488z"/>
		<path fill="#FFFFFF" d="M25.158,25.667c-0.277,0.393-0.701,0.519-1.093,0.275c-0.809-0.499-1.846-1.336-2.973-2.461
			c-1.125-1.126-1.962-2.162-2.461-2.973c-0.241-0.393-0.117-0.816,0.277-1.093l0-0.001l-3.111-3.624
			c-0.316,0.301-0.67,0.711-1.116,1.278c-0.54,0.685-0.672,1.522-0.204,2.478c0.458,0.933,2.142,3.512,4.59,5.96
			c2.448,2.448,5.028,4.133,5.96,4.591c0.956,0.468,1.792,0.335,2.477-0.204c0.567-0.447,0.978-0.801,1.278-1.117l-3.624-3.111
			C25.159,25.667,25.159,25.667,25.158,25.667z"/>
		<path fill="#FFFFFF" d="M29.326,26.585c-0.844-0.787-1.921-1.668-2.187-1.913c-0.266-0.244-0.563-0.411-1.053,0.018
			c-0.229,0.202-0.614,0.547-0.614,0.547l3.648,3.132c0.146-0.212,0.331-0.499,0.438-0.675
			C29.836,27.242,29.72,26.952,29.326,26.585z"/>
		<path fill="#FFFFFF" d="M24.049,14.087c0.42,0.134,2.099,0.497,3.977,2.599c1.876,2.102,2.047,3.811,2.133,4.245
			c0.057,0.288,0.238,0.49,0.424,0.502c0.22,0.012,0.444-0.164,0.457-0.643c0.012-0.391-0.044-2.672-2.074-4.945
			c-2.03-2.272-4.29-2.588-4.679-2.62c-0.477-0.038-0.678,0.164-0.689,0.384C23.586,13.796,23.767,13.999,24.049,14.087z"/>
		<path fill="#FFFFFF" d="M23.28,16.728c0.336,0.116,1.667,0.628,2.738,1.828c1.07,1.198,1.429,2.578,1.506,2.925
			c0.07,0.305,0.219,0.457,0.416,0.443c0.098-0.006,0.352-0.094,0.375-0.496c0.017-0.318-0.083-1.998-1.5-3.586
			c-1.417-1.587-3.076-1.876-3.392-1.894c-0.404-0.023-0.519,0.22-0.537,0.315C22.851,16.458,22.986,16.625,23.28,16.728z"/>
		<path fill="#FFFFFF" d="M22.592,19.101c0.336,0.188,0.866,0.532,1.466,1.203c0.6,0.673,0.882,1.238,1.032,1.593
			c0.156,0.372,0.284,0.452,0.392,0.433c0.177-0.029,0.238-0.074,0.275-0.438c0.031-0.312-0.066-1.248-0.958-2.248
			c-0.894-1-1.814-1.201-2.125-1.206c-0.366-0.004-0.417,0.052-0.466,0.225C22.175,18.768,22.24,18.903,22.592,19.101z"/>
	</g>
</g>
<g>
	<g>
		<linearGradient id="SVGID_2_" gradientUnits="userSpaceOnUse" x1="58.6831" y1="39.7173" x2="58.6831" y2="1.3154">
			<stop  offset="0" style="stop-color:#739C31"/>
			<stop  offset="1" style="stop-color:#96B943"/>
		</linearGradient>
		<path fill="url(#SVGID_2_)" stroke="#526B30" stroke-miterlimit="10" d="M115.71,34.596c0,2.829-2.293,5.121-5.121,5.121H6.776
			c-2.829,0-5.121-2.292-5.121-5.121V6.435c0-2.828,2.292-5.12,5.121-5.12h103.813c2.828,0,5.121,2.292,5.121,5.12V34.596z"/>
		<g>
			<g>
				<g>
					<path fill="#FFFFFF" d="M37.337,17.844v-1.383h2.09v-1.729h1.367v1.729h3.064c0.115,0,0.209,0.021,0.283,0.063
						c0.167,0.105,0.251,0.346,0.251,0.723c0,2.347-0.021,4.431-0.063,6.254c-0.063,3.09-0.456,4.948-1.178,5.577
						c-0.188,0.199-0.54,0.304-1.053,0.314c-0.503,0-1.121-0.084-1.854-0.252l-0.157-1.665c0.681,0.178,1.21,0.283,1.587,0.314
						c0.367,0.021,0.586-0.021,0.66-0.126c0.146-0.199,0.283-0.597,0.408-1.194c0.115-0.639,0.178-1.696,0.188-3.174
						c0.021-3.467,0.01-5.247-0.031-5.342c-0.042-0.072-0.1-0.109-0.173-0.109h-1.948c-0.01,0.084-0.125,1.492-0.346,4.227
						c-0.482,3.236-1.137,5.582-1.964,7.038l-1.43-0.314c1.592-3.31,2.388-6.96,2.388-10.95H37.337z M51.398,29.031h-5.31
						c-0.126,0-0.188-0.068-0.188-0.204V15.786c0-0.125,0.063-0.188,0.188-0.188h5.31c0.136,0,0.205,0.063,0.205,0.188v13.041
						C51.603,28.962,51.535,29.031,51.398,29.031z M47.33,16.964c-0.042,0-0.063,0.021-0.063,0.063v10.559
						c0,0.052,0.021,0.078,0.063,0.078h2.828c0.052-0.011,0.078-0.037,0.078-0.078V17.027c-0.01-0.042-0.037-0.063-0.078-0.063
						H47.33z"/>
					<path fill="#FFFFFF" d="M56.386,16.838v-1.367h5.688c0.271,0,0.424,0.142,0.455,0.425c0.556,3.037,1.373,5.52,2.451,7.447
						c0.713,1.341,2.09,3.063,4.133,5.169l-1.179,0.801c-0.587-0.628-1.085-1.184-1.493-1.665c-2.305-2.66-3.854-5.803-4.65-9.427
						c-1.184,4.054-3.289,7.72-6.315,10.998l-1.131-0.786c0.848-0.827,1.649-1.702,2.404-2.623c1.854-2.305,3.211-5.295,4.069-8.972
						H56.386z"/>
					<path fill="#FFFFFF" d="M71.539,24.066c-0.189-0.21-0.199-0.461-0.031-0.754c0.544-1.068,1.053-2.724,1.523-4.965h-1.665V16.98
						h1.917c0.136-0.733,0.24-1.492,0.314-2.278l1.351,0.268c-0.115,0.701-0.235,1.372-0.361,2.011h2.624
						c0.22-0.042,0.335,0.047,0.346,0.267c-0.031,2.441-0.314,4.494-0.849,6.159c-0.126,0.335-0.44,1.084-0.942,2.247l2.073,1.523
						l-0.69,1.194l-2.09-1.587c-0.754,1.006-1.697,1.917-2.828,2.733l-1.021-1.131c1.109-0.712,1.984-1.43,2.623-2.152
						c0.063-0.084,0.131-0.162,0.205-0.235L71.539,24.066z M74.32,18.347c-0.42,1.896-0.901,3.645-1.445,5.247
						c0-0.031,0.02-0.042,0.063-0.031l1.838,1.367c1.078-1.948,1.603-4.059,1.571-6.332c0-0.178-0.068-0.262-0.204-0.251H74.32z
						 M77.964,22.557v-1.366h3.85c-0.252-0.472-0.556-0.917-0.912-1.336c-0.115-0.104-0.178-0.193-0.188-0.267
						c-0.021-0.084,0.004-0.163,0.078-0.236l2.797-2.702c0.021-0.042,0.025-0.084,0.016-0.126c-0.011-0.041-0.047-0.063-0.11-0.063
						h-5.231v-1.367h6.959l0.834,0.99l-3.441,3.347c-0.157,0.157-0.152,0.346,0.016,0.565c0.252,0.377,0.477,0.775,0.676,1.194
						h2.781v1.366h-2.263c0.388,1.205,0.544,2.325,0.472,3.362c-0.127,1.394-0.629,2.341-1.509,2.844
						c-0.042,0.021-0.079,0.037-0.11,0.047c-1.204,0.492-2.529,0.283-3.975-0.628l0.299-1.524c0.377,0.263,0.791,0.487,1.24,0.676
						c0.389,0.136,0.713,0.226,0.975,0.268c0.157,0.01,0.377-0.053,0.66-0.188c0.629-0.378,0.958-0.933,0.99-1.666
						c0.094-0.963-0.048-2-0.425-3.11c-0.011-0.042-0.021-0.068-0.031-0.079H77.964z"/>
					<path fill="#FFFFFF" d="M93.195,20.923c-0.838,2.775-2.058,5.357-3.66,7.746l-1.352-0.66c0.356-0.482,0.697-0.975,1.021-1.477
						c1.76-2.682,2.859-5.609,3.299-8.783h-3.896v-1.43h4.038c0.052-0.555,0.094-1.151,0.125-1.791l1.43,0.11
						c-0.053,0.607-0.1,1.168-0.141,1.681h8.893v1.43h-9.051c-0.104,0.576-0.219,1.179-0.346,1.807h7.165l1.021,0.691
						c-0.461,2.336-1.57,4.273-3.33,5.813c1.645,1.037,3.283,1.733,4.918,2.09l-0.943,1.351c-2.053-0.618-3.76-1.466-5.121-2.545
						c-1.666,1.11-3.619,1.984-5.861,2.624l-0.659-1.367c1.634-0.398,2.938-0.822,3.912-1.272c0.565-0.283,1.1-0.571,1.603-0.864
						c-1.31-1.361-2.236-3.079-2.781-5.153H93.195z M95.756,23.139c0.45,0.838,0.989,1.545,1.618,2.12
						c0.031-0.031,0.068-0.063,0.109-0.094c1.478-1.268,2.342-2.593,2.594-3.975c0.031-0.179-0.068-0.268-0.299-0.268h-4.902
						C95.138,21.792,95.431,22.532,95.756,23.139z"/>
				</g>
			</g>
		</g>
	</g>
	<path fill="#FFFFFF" d="M23.617,13.221c-4.995,0-9.043,3.272-9.043,7.31c0,3.763,3.518,6.86,8.039,7.265
		c0.085,0.007,0.235,0.113,0.227,0.319c-0.018,0.428-0.198,1.381-0.163,1.896c0.026,0.374,0.193,0.42,0.487,0.34
		c1.732-0.471,5.267-2.674,7.651-5.396c1.113-1.27,1.845-2.762,1.845-4.425C32.659,16.494,28.611,13.221,23.617,13.221z
		 M20.067,22.857h-1.896c-0.268,0-0.486-0.219-0.486-0.487v-3.533c0-0.269,0.218-0.485,0.486-0.485c0.269,0,0.486,0.217,0.486,0.485
		v3.047h1.41c0.269,0,0.487,0.218,0.487,0.486S20.335,22.857,20.067,22.857z M21.866,22.37c0,0.269-0.218,0.486-0.486,0.486
		c-0.269,0-0.486-0.218-0.486-0.486v-3.533c0-0.269,0.217-0.485,0.486-0.485c0.269,0,0.486,0.217,0.486,0.485V22.37z M26.145,22.37
		c0,0.209-0.133,0.395-0.33,0.461c-0.052,0.018-0.104,0.026-0.157,0.026c-0.148,0-0.292-0.068-0.386-0.191l-1.801-2.356v2.061
		c0,0.269-0.219,0.487-0.487,0.487c-0.269,0-0.486-0.219-0.486-0.487v-3.498c0-0.208,0.133-0.394,0.33-0.46
		c0.197-0.067,0.416-0.001,0.542,0.165l1.802,2.356v-2.097c0-0.269,0.217-0.485,0.485-0.485c0.27,0,0.487,0.217,0.487,0.485V22.37z
		 M29.336,20.117c0.268,0,0.486,0.219,0.486,0.486c0,0.269-0.218,0.486-0.486,0.486h-1.539v0.795h1.55
		c0.269,0,0.487,0.216,0.487,0.486c0,0.268-0.218,0.486-0.487,0.486h-2.036c-0.269,0-0.486-0.219-0.486-0.486v-3.533
		c0-0.269,0.218-0.486,0.486-0.486h2.042c0.269,0,0.486,0.218,0.486,0.486s-0.218,0.485-0.486,0.485h-1.556v0.794H29.336z"/>
</g>
<g>
	<g>
		<linearGradient id="SVGID_3_" gradientUnits="userSpaceOnUse" x1="58.6826" y1="39.7173" x2="58.6826" y2="1.3154">
			<stop  offset="0" style="stop-color:#3F5F90"/>
			<stop  offset="1" style="stop-color:#2078B6"/>
		</linearGradient>
		<path fill="url(#SVGID_3_)" stroke="#0E386E" stroke-miterlimit="10" d="M115.71,34.596c0,2.829-2.293,5.121-5.121,5.121H6.776
			c-2.828,0-5.121-2.292-5.121-5.121V6.435c0-2.828,2.293-5.12,5.121-5.12h103.813c2.828,0,5.121,2.292,5.121,5.12V34.596z"/>
		<g>
			<g>
				<g>
					<path fill="#FFFFFF" d="M38.422,29.313l-1.335-0.267c0.429-1.97,0.644-4.038,0.644-6.206v-7.385c0-0.198,0.1-0.298,0.298-0.298
						h3.268c0.094,0.011,0.162,0.036,0.204,0.078c0.063,0.073,0.1,0.146,0.11,0.22v13.104c-0.01,0.272-0.1,0.487-0.267,0.645
						c-0.157,0.157-0.335,0.251-0.534,0.282c-0.199,0.021-0.696,0.026-1.492,0.016l-0.236-1.351c0.681,0.094,1.074,0.12,1.178,0.078
						c0.073-0.021,0.11-0.068,0.11-0.142v-3.519h-1.43C38.888,26.119,38.715,27.7,38.422,29.313z M40.37,19.179v-2.655
						c-0.021-0.031-0.037-0.063-0.047-0.094c-0.031-0.021-0.063-0.031-0.094-0.031h-1.131c-0.084,0.01-0.125,0.052-0.125,0.125
						v2.655H40.37z M40.37,23.328V20.42h-1.398v2.907H40.37z M42.758,29.627l-1.052-0.896c1.194-0.942,2.047-2.231,2.561-3.865
						l1.241,0.425c-0.167,0.481-0.319,0.885-0.456,1.209c0.597,0.43,1.168,0.886,1.712,1.367l-0.833,1.006
						c-0.398-0.419-0.87-0.864-1.414-1.336C43.764,28.522,43.177,29.219,42.758,29.627z M42.491,18.676l-0.707-1.178
						c2.472-0.911,4.075-1.886,4.808-2.923l1.226,0.236c-0.052,0.084-0.11,0.173-0.173,0.267c1.226,1.037,2.703,1.839,4.431,2.404
						l-0.738,1.178c-1.739-0.785-3.21-1.686-4.415-2.702C45.853,16.912,44.376,17.818,42.491,18.676z M46.466,24.38h-3.928
						c-0.105-0.011-0.157-0.068-0.157-0.173v-4.18c0-0.104,0.052-0.157,0.157-0.157h3.928c0.115,0,0.173,0.053,0.173,0.157v4.18
						C46.628,24.323,46.57,24.38,46.466,24.38z M43.669,20.986c-0.042,0-0.058,0.017-0.047,0.048v2.168
						c-0.011,0.031,0.005,0.053,0.047,0.063h1.665c0.042-0.01,0.063-0.031,0.063-0.063v-2.168c0-0.031-0.021-0.048-0.063-0.048
						H43.669z M49.844,17.986v1.241h-5.86v-1.241H49.844z M49.168,27.695c-0.544,0.817-1.084,1.477-1.618,1.979l-1.068-0.864
						c1.173-0.984,2-2.293,2.482-3.928l1.257,0.394c-0.188,0.544-0.351,0.995-0.487,1.351c0.827,0.629,1.634,1.294,2.419,1.995
						l-0.896,1.037C50.682,29.051,49.985,28.397,49.168,27.695z M51.619,24.38h-3.865c-0.105-0.011-0.157-0.068-0.157-0.173v-4.18
						c0-0.104,0.052-0.157,0.157-0.157h3.865c0.115,0,0.173,0.053,0.173,0.157v4.18C51.781,24.323,51.724,24.38,51.619,24.38z
						 M48.885,20.986c-0.042,0-0.058,0.017-0.047,0.048v2.168c-0.011,0.031,0.005,0.053,0.047,0.063h1.603
						c0.042-0.01,0.063-0.031,0.063-0.063v-2.168c0-0.031-0.021-0.048-0.063-0.048H48.885z"/>
					<path fill="#FFFFFF" d="M61.005,21.803h-5.687v-1.115h5.687v-0.645h-5.357v-1.115h5.357v-0.707h-6.567v-1.115h6.567v-0.771
						h-5.294V15.22h5.294v-0.597h1.367v0.597h4.871c0.271,0,0.408,0.131,0.408,0.393v1.493h1.319v1.115h-1.319v1.414
						c-0.011,0.272-0.146,0.408-0.408,0.408h-4.871v0.645h5.656v1.115h-5.656v0.645h6.725v1.115H54.313v-1.115h6.692V21.803z
						 M67.337,29.344H56.025c-0.115,0-0.173-0.063-0.173-0.188v-4.713c0.01-0.115,0.068-0.173,0.173-0.173h11.312
						c0.125,0.011,0.188,0.068,0.188,0.173v4.713C67.526,29.282,67.462,29.344,67.337,29.344z M57.219,27.333v0.833
						c-0.01,0.031,0.005,0.052,0.047,0.063h8.83c0.042-0.011,0.063-0.031,0.063-0.063v-0.833H57.219z M66.16,26.218v-0.77
						c0-0.042-0.021-0.063-0.063-0.063h-8.83c-0.042,0-0.058,0.021-0.047,0.063v0.77H66.16z M62.373,17.106h3.912v-0.66
						c-0.01-0.073-0.053-0.11-0.125-0.11h-3.787V17.106z M62.373,18.928h3.787c0.083-0.011,0.125-0.053,0.125-0.126v-0.581h-3.912
						V18.928z"/>
					<path fill="#FFFFFF" d="M71.303,26.768v-1.241h10.433v-0.942l-9.459,0.298l-0.141-1.241l5.891-0.173v-0.723h-5.23
						c-0.116,0-0.174-0.063-0.174-0.188v-4.713c0.011-0.115,0.068-0.173,0.174-0.173h5.23v-0.833h-6.535v-1.241h6.535V14.56h1.305
						v1.037h6.631v1.241h-6.631v0.833h5.279c0.125,0.011,0.188,0.068,0.188,0.173v4.713c0,0.126-0.063,0.188-0.188,0.188h-0.157
						c0.136,0.147,0.288,0.305,0.456,0.472c0.439,0.439,0.806,0.854,1.1,1.241l-0.975,0.754c-0.199-0.23-0.398-0.471-0.598-0.723
						l-1.397,0.047v0.99h3.11v1.241h-3.11v1.226c-0.021,0.597-0.251,1.037-0.691,1.319c-0.587,0.409-1.702,0.377-3.347-0.094
						l0.031-1.352c0.587,0.178,0.995,0.288,1.227,0.33c0.293,0.063,0.564,0.1,0.816,0.11c0.178,0.01,0.351-0.063,0.519-0.221
						c0.095-0.084,0.142-0.225,0.142-0.424v-0.896H71.303z M78.027,20.704h-4.1v0.864c-0.011,0.031,0.005,0.053,0.047,0.063h4.053
						V20.704z M78.027,18.787h-4.053c-0.042,0-0.058,0.016-0.047,0.047v0.817h4.1V18.787z M75.781,26.941
						c0.723,0.503,1.32,0.979,1.791,1.43l-0.942,0.958c-0.587-0.555-1.163-1.005-1.729-1.351L75.781,26.941z M79.332,19.651h4.164
						v-0.817c0-0.031-0.021-0.047-0.063-0.047h-4.101V19.651z M79.332,21.63h4.101c0.042-0.01,0.063-0.031,0.063-0.063v-0.864
						h-4.164V21.63z M83.385,22.746h-4.054v0.676l3.943-0.126c-0.115-0.114-0.193-0.193-0.235-0.235L83.385,22.746z"/>
					<path fill="#FFFFFF" d="M93.416,27.994c-1.686,0.922-3.205,1.435-4.556,1.539l-0.409-1.351
						c1.561-0.146,2.985-0.603,4.273-1.367L93.416,27.994z M101.554,26.673H90.023c-0.127,0-0.189-0.067-0.189-0.204v-8.704
						c0-0.125,0.063-0.188,0.189-0.188h4.367c0.115-0.324,0.235-0.681,0.361-1.068c0-0.041,0.005-0.067,0.016-0.078h-6.222v-1.304
						h14.47v1.304H96.15c-0.126,0.388-0.236,0.77-0.33,1.146h5.734c0.137,0,0.204,0.063,0.204,0.188v8.704
						C101.758,26.606,101.691,26.673,101.554,26.673z M91.201,24.097v1.194c-0.011,0.042,0.005,0.068,0.047,0.078h9.081
						c0.042-0.01,0.063-0.036,0.063-0.078v-1.194H91.201z M100.392,20.09v-1.146c0-0.042-0.021-0.063-0.063-0.063h-9.081
						c-0.042,0-0.058,0.021-0.047,0.063v1.146H100.392z M100.392,22.793v-1.398h-9.191v1.398H100.392z M98.349,26.752
						c1.393,0.272,3.017,0.822,4.871,1.649l-0.566,1.241c-1.864-0.807-3.394-1.325-4.588-1.556L98.349,26.752z"/>
				</g>
			</g>
		</g>
	</g>
	<path fill="#FFFFFF" d="M29.556,13.221H15.675c-0.906,0-1.641,0.735-1.641,1.642v13.881c0,0.906,0.735,1.641,1.641,1.641h13.881
		c0.907,0,1.641-0.734,1.641-1.641V14.863C31.197,13.957,30.463,13.221,29.556,13.221z M27.919,18.044h-2.115
		c-0.343,0-0.48,0.271-0.48,0.546v2.019h2.434l-0.384,2.563h-2.049v6.409H22.76v-6.409h-2.083v-2.563h2.083v-1.892
		c0-2.039,1.404-3.106,2.918-3.106h2.242V18.044z"/>
</g>
</svg>
