<?xml version="1.0" encoding="utf-8"?>
<!-- Generator: Adobe Illustrator 16.0.3, SVG Export Plug-In . SVG Version: 6.00 Build 0)  -->
<!DOCTYPE svg PUBLIC "-//W3C//DTD SVG 1.1//EN" "http://www.w3.org/Graphics/SVG/1.1/DTD/svg11.dtd">
<svg version="1.1" id="圖層_1" xmlns="http://www.w3.org/2000/svg" xmlns:xlink="http://www.w3.org/1999/xlink" x="0px" y="0px"
	 width="139.485px" height="140.343px" viewBox="0 0 139.485 140.343" enable-background="new 0 0 139.485 140.343"
	 xml:space="preserve">
<path fill="#FFFFFF" d="M81.966,70.324l53.627-53.627c3.306-3.306,3.306-8.661,0-11.967c-3.29-3.305-8.668-3.305-11.958,0L70,58.361
	L16.374,4.73c-3.306-3.305-8.677-3.305-11.967,0c-3.305,3.306-3.305,8.661-0.007,11.967l53.634,53.634l-53.627,53.62
	c-3.305,3.305-3.305,8.669,0,11.974c1.646,1.652,3.816,2.479,5.979,2.479c2.164,0,4.334-0.826,5.979-2.479L69.993,82.29
	l53.627,53.635c1.652,1.652,3.823,2.479,5.987,2.479c2.163,0,4.334-0.826,5.979-2.479c3.305-3.305,3.305-8.661,0.007-11.966
	L81.966,70.324z"/>
</svg>
