<?xml version="1.0" encoding="utf-8"?>
<!-- Generator: Adobe Illustrator 16.0.3, SVG Export Plug-In . SVG Version: 6.00 Build 0)  -->
<!DOCTYPE svg PUBLIC "-//W3C//DTD SVG 1.1//EN" "http://www.w3.org/Graphics/SVG/1.1/DTD/svg11.dtd">
<svg version="1.1" id="圖層_1" xmlns="http://www.w3.org/2000/svg" xmlns:xlink="http://www.w3.org/1999/xlink" x="0px" y="0px"
	 width="23.605px" height="24.463px" viewBox="0 0 23.605 24.463" enable-background="new 0 0 23.605 24.463" xml:space="preserve">
<path fill="#FFFFFF" d="M21.379,19.704l-5.455-5.552c0.841-1.25,1.334-2.763,1.334-4.392c0-4.304-3.427-7.791-7.652-7.791
	c-4.229,0-7.654,3.487-7.654,7.791c0,4.301,3.425,7.79,7.654,7.79c1.601,0,3.086-0.502,4.314-1.357l5.454,5.551
	c0.276,0.281,0.64,0.422,1.003,0.422c0.361,0,0.726-0.141,1.002-0.422C21.933,21.181,21.933,20.267,21.379,19.704z M9.606,15.242
	c-2.972,0-5.386-2.459-5.386-5.481c0-3.024,2.414-5.482,5.386-5.482c2.968,0,5.385,2.458,5.385,5.482
	C14.991,12.782,12.574,15.242,9.606,15.242z"/>
</svg>
